<svg xmlns="http://www.w3.org/2000/svg" viewBox="0 0 237.38 45.39"><defs><style>.a{fill:#fff;}</style></defs><title>SHlogo_white</title><path class="a" d="M58.4,20.89a5.79,5.79,0,0,0,1.13.54,13.87,13.87,0,0,0,1.78.53,23.67,23.67,0,0,0,2.4.42,23.35,23.35,0,0,0,2.94.17,22.42,22.42,0,0,0,4.4-.41,13.45,13.45,0,0,0,3.69-1.26,7.65,7.65,0,0,0,2.62-2.2,5.28,5.28,0,0,0,1-3.21A4.64,4.64,0,0,0,77.7,13,6.3,6.3,0,0,0,76,11.25,10.49,10.49,0,0,0,73.86,10c-.77-.32-1.58-.6-2.39-.86l-2.34-.7a18.48,18.48,0,0,1-2-.67A4.3,4.3,0,0,1,66,7.08a.67.67,0,0,1-.27-.54.79.79,0,0,1,.12-.42,1.19,1.19,0,0,1,.44-.4,3.47,3.47,0,0,1,1-.35,7.22,7.22,0,0,1,1.53-.14A11.19,11.19,0,0,1,71,5.42a16.31,16.31,0,0,1,1.76.44c.51.16.95.31,1.29.45a3.13,3.13,0,0,0,1.09.27,1.55,1.55,0,0,0,.83-.22,1.38,1.38,0,0,0,.55-.67A2.82,2.82,0,0,0,76.63,5a7.62,7.62,0,0,0,0-.84V3.42a2.84,2.84,0,0,0-.12-.62,1.8,1.8,0,0,0-.26-.52,2,2,0,0,0-.51-.45,4.82,4.82,0,0,0-1.14-.48A15.7,15.7,0,0,0,72.92.9a20,20,0,0,0-2-.3A21.52,21.52,0,0,0,64.7.85,12,12,0,0,0,61.33,2a7,7,0,0,0-2.39,2A4.93,4.93,0,0,0,58,7a4.77,4.77,0,0,0,.67,2.55,6.29,6.29,0,0,0,1.63,1.76,10.34,10.34,0,0,0,2.16,1.21,24.77,24.77,0,0,0,2.38.86l2.31.7a17.8,17.8,0,0,1,1.9.67,4.47,4.47,0,0,1,1.21.72.67.67,0,0,1,.27.54,1,1,0,0,1-.18.6,1.7,1.7,0,0,1-.63.53,4.66,4.66,0,0,1-1.25.42,9.14,9.14,0,0,1-1.8.16,14.42,14.42,0,0,1-2.77-.24A17.59,17.59,0,0,1,61.82,17c-.58-.19-1.06-.37-1.43-.53a2.21,2.21,0,0,0-2-.15,1.43,1.43,0,0,0-.64.64,2.42,2.42,0,0,0-.23.78,6.59,6.59,0,0,0,0,.91,4.27,4.27,0,0,0,.17,1.33A1.88,1.88,0,0,0,58.4,20.89Z"/><path class="a" d="M102.86,6.94a8,8,0,0,0-2.19-3.23,9.71,9.71,0,0,0-3.73-2A18.68,18.68,0,0,0,91.61,1a17.65,17.65,0,0,0-5.5.77A10.8,10.8,0,0,0,82.21,4a8.88,8.88,0,0,0-2.34,3.37,11.65,11.65,0,0,0-.78,4.34,12.43,12.43,0,0,0,.72,4.37A8,8,0,0,0,82,19.3a9.93,9.93,0,0,0,3.74,2A18.23,18.23,0,0,0,91,22a17.79,17.79,0,0,0,5.51-.77,10.72,10.72,0,0,0,4-2.23,8.89,8.89,0,0,0,2.33-3.37,11.75,11.75,0,0,0,.77-4.33A12.48,12.48,0,0,0,102.86,6.94Zm-6.25,7.23a5.23,5.23,0,0,1-1,2,4.43,4.43,0,0,1-1.77,1.24,6.88,6.88,0,0,1-2.54.43,6.69,6.69,0,0,1-2.66-.47A4.07,4.07,0,0,1,86.91,16,5.57,5.57,0,0,1,86,14a10.66,10.66,0,0,1-.28-2.53,9.15,9.15,0,0,1,.35-2.63,5.45,5.45,0,0,1,1-2,4.37,4.37,0,0,1,1.77-1.25,6.77,6.77,0,0,1,2.51-.43A6.54,6.54,0,0,1,94,5.64,4.28,4.28,0,0,1,95.76,7a5.32,5.32,0,0,1,.91,2,11.21,11.21,0,0,1,.27,2.53A9.49,9.49,0,0,1,96.61,14.17Z"/><path class="a" d="M178,3.1a2.94,2.94,0,0,0,.09-.64,1,1,0,0,0-.23-.64,1.3,1.3,0,0,0-.68-.39,5.41,5.41,0,0,0-1-.15h-3.09a5,5,0,0,0-1,.16,1.44,1.44,0,0,0-.7.4,1.26,1.26,0,0,0-.29.57l-3.89,12.17L163.13,2.32a1.57,1.57,0,0,0-.3-.5,1.37,1.37,0,0,0-.69-.37,5.89,5.89,0,0,0-1-.16c-.39,0-.91,0-1.53,0h-1.54a4.58,4.58,0,0,0-1,.16,1.52,1.52,0,0,0-.67.39,1.46,1.46,0,0,0-.34.59l-3.77,12.1-4-12.1a1.68,1.68,0,0,0-.29-.56,1.36,1.36,0,0,0-.71-.42,5.2,5.2,0,0,0-1.07-.16H122.15a.93.93,0,0,0-.3,0H106.67a2.13,2.13,0,0,0-1.45.51,2.09,2.09,0,0,0-.59,1.66V20.58a.76.76,0,0,0,.17.5,1.26,1.26,0,0,0,.56.35,4.77,4.77,0,0,0,1.06.22,14.58,14.58,0,0,0,1.66.08,14.47,14.47,0,0,0,1.67-.08,5.05,5.05,0,0,0,1.06-.22,1.17,1.17,0,0,0,.56-.35.8.8,0,0,0,.16-.5v-4.8h7.76a.65.65,0,0,0,.42-.14,1.2,1.2,0,0,0,.33-.48,3.22,3.22,0,0,0,.21-.86,3.45,3.45,0,0,0,.07-.79,10.69,10.69,0,0,0-.07-1.31,2.9,2.9,0,0,0-.21-.84,1.1,1.1,0,0,0-.33-.44.7.7,0,0,0-.42-.13h-7.76V6.92h11a.63.63,0,0,0,.23,0h5.72a.54.54,0,0,1,.54.54v13.4a.55.55,0,0,0,.18.4,1.33,1.33,0,0,0,.59.29,6.87,6.87,0,0,0,1.08.17c.46,0,1,.06,1.68.06a14,14,0,0,0,1.69-.06,6.89,6.89,0,0,0,1.08-.17,1.33,1.33,0,0,0,.58-.28.56.56,0,0,0,.18-.41V7.42a.55.55,0,0,1,.55-.54h5.68l4.87,13.52a1.79,1.79,0,0,0,.4.71,1.74,1.74,0,0,0,.84.46,6.57,6.57,0,0,0,1.29.19c.51,0,1.18,0,2,0h2a6.43,6.43,0,0,0,1.31-.18,1.67,1.67,0,0,0,.85-.47,1.87,1.87,0,0,0,.38-.72l3.08-9.83,3.35,9.83a1.81,1.81,0,0,0,.4.71,1.75,1.75,0,0,0,.84.46,6.62,6.62,0,0,0,1.3.19c.52,0,1.18,0,2,0h2a5.73,5.73,0,0,0,1.27-.18,1.77,1.77,0,0,0,.8-.45,2,2,0,0,0,.42-.71l5.94-16.35A2.71,2.71,0,0,0,178,3.1Z"/><path class="a" d="M195.76,2.67a8.75,8.75,0,0,0-3.21-1.35,23.43,23.43,0,0,0-7.48-.23,23.07,23.07,0,0,0-2.6.51,17.07,17.07,0,0,0-2.1.68A5.17,5.17,0,0,0,179,3a1.94,1.94,0,0,0-.61.85A3.54,3.54,0,0,0,178.26,5a4.83,4.83,0,0,0,.08.94,2.87,2.87,0,0,0,.25.77,1.5,1.5,0,0,0,.49.57c.47.32,1.06.29,1.95-.1.4-.18.91-.38,1.55-.61A18.07,18.07,0,0,1,184.71,6a12.14,12.14,0,0,1,2.7-.27,8,8,0,0,1,1.9.19,2.66,2.66,0,0,1,1.11.53,1.94,1.94,0,0,1,.57.87,4.32,4.32,0,0,1,.19,1.35v.65h-1.73a33.52,33.52,0,0,0-5.28.37,13.52,13.52,0,0,0-3.88,1.17,6.13,6.13,0,0,0-2.44,2.08,5.35,5.35,0,0,0-.83,3,5.48,5.48,0,0,0,2.47,4.75,8.47,8.47,0,0,0,2.71,1.18,13.75,13.75,0,0,0,3.36.39,11.39,11.39,0,0,0,4.06-.7,10.86,10.86,0,0,0,2.53-1.36v.52a1,1,0,0,0,.39.8,1.92,1.92,0,0,0,.93.32,18.4,18.4,0,0,0,3.33,0,2.34,2.34,0,0,0,1-.3,1,1,0,0,0,.45-.82V8.46a9.05,9.05,0,0,0-.58-3.39A5.44,5.44,0,0,0,195.76,2.67ZM191.2,15.75a9.19,9.19,0,0,1-2,1.4,5,5,0,0,1-2.23.5,3.67,3.67,0,0,1-2.19-.56,1.65,1.65,0,0,1-.7-1.42,1.8,1.8,0,0,1,.25-1,2.08,2.08,0,0,1,.82-.72,5.3,5.3,0,0,1,1.61-.5,15.47,15.47,0,0,1,2.52-.18h2Z"/><path class="a" d="M215.24,6.42a3.48,3.48,0,0,0,.17-.84,12,12,0,0,0,.05-1.24V3.16a4.23,4.23,0,0,0-.09-.71,1.78,1.78,0,0,0-.15-.43,1.08,1.08,0,0,0-.33-.38,1.85,1.85,0,0,0-.56-.26,6,6,0,0,0-.75-.18,8,8,0,0,0-.82-.11,7.3,7.3,0,0,0-2.22.13A5.64,5.64,0,0,0,209,1.8a9.44,9.44,0,0,0-1.54,1.09c-.3.25-.6.54-.92.86V2.66a1,1,0,0,0-.23-.64,1.35,1.35,0,0,0-.6-.39,4,4,0,0,0-.91-.18c-.37,0-.81,0-1.37,0a9.92,9.92,0,0,0-1.33,0,4.69,4.69,0,0,0-.92.17,1.33,1.33,0,0,0-.66.39,1,1,0,0,0-.23.64V20.72a.92.92,0,0,0,.27.66,1.56,1.56,0,0,0,.71.37,5.67,5.67,0,0,0,1,.17c.41,0,.92,0,1.56,0a14,14,0,0,0,1.56,0,5.7,5.7,0,0,0,1-.17,1.55,1.55,0,0,0,.7-.37.92.92,0,0,0,.28-.67V9.62a15.26,15.26,0,0,1,1.18-1.34,7.09,7.09,0,0,1,1.1-.92,4.27,4.27,0,0,1,1-.49,3.39,3.39,0,0,1,1.65-.09l.66.15.55.15A1.49,1.49,0,0,0,214.81,7,1.14,1.14,0,0,0,215.24,6.42Z"/><path class="a" d="M236.75,6.51a7.65,7.65,0,0,0-2-3,9.29,9.29,0,0,0-3.41-2A15.53,15.53,0,0,0,226.45.9a15.33,15.33,0,0,0-4.89.73,10.39,10.39,0,0,0-3.73,2.15,9.28,9.28,0,0,0-2.35,3.44,12.08,12.08,0,0,0-.8,4.51,12.61,12.61,0,0,0,.76,4.57,8,8,0,0,0,2.36,3.3,10.28,10.28,0,0,0,3.89,1.93,20.44,20.44,0,0,0,5.31.62,26.43,26.43,0,0,0,3.14-.18c1-.12,1.84-.25,2.6-.41a17.25,17.25,0,0,0,1.89-.49,3.06,3.06,0,0,0,1-.47,1.85,1.85,0,0,0,.34-.38,1.51,1.51,0,0,0,.21-.52,4.46,4.46,0,0,0,.09-.6v-.79a8.75,8.75,0,0,0,0-.89,1.82,1.82,0,0,0-.19-.68,1,1,0,0,0-.45-.44,2.34,2.34,0,0,0-1.67.1q-.59.19-1.48.42c-.59.15-1.3.29-2.11.42a18.81,18.81,0,0,1-2.82.19,9.43,9.43,0,0,1-2.65-.33,4.47,4.47,0,0,1-1.72-.91,3.39,3.39,0,0,1-.95-1.42,5.55,5.55,0,0,1-.3-1.51H235a2.5,2.5,0,0,0,1.7-.55,2.15,2.15,0,0,0,.66-1.71v-.81A10.59,10.59,0,0,0,236.75,6.51ZM222,9.09a5.44,5.44,0,0,1,.29-1.2,3.63,3.63,0,0,1,2.12-2.18,5,5,0,0,1,1.91-.33,4.17,4.17,0,0,1,3.18,1.08,3.9,3.9,0,0,1,.94,2.63Z"/><path class="a" d="M78.57,25.36a6.82,6.82,0,0,0-1-.16c-.42,0-1-.06-1.59-.06a13.16,13.16,0,0,0-1.62.06,6.44,6.44,0,0,0-1,.16,1.37,1.37,0,0,0-.6.3.65.65,0,0,0-.22.48v6.4a.52.52,0,0,1-.52.52H65a.52.52,0,0,1-.52-.52v-6.4a.69.69,0,0,0-.2-.48,1.29,1.29,0,0,0-.61-.3,6.83,6.83,0,0,0-1-.16c-.42,0-1-.06-1.61-.06a12.74,12.74,0,0,0-1.6.06,6.77,6.77,0,0,0-1,.16,1.37,1.37,0,0,0-.62.3c-.1.1-.22.35-.22,2v16a.7.7,0,0,0,.21.48,1.38,1.38,0,0,0,.62.3,6.49,6.49,0,0,0,1,.16c.43,0,1,.06,1.6.06a12.9,12.9,0,0,0,1.61-.06,6.39,6.39,0,0,0,1-.16,1.29,1.29,0,0,0,.61-.3.68.68,0,0,0,.2-.48V38.32A.52.52,0,0,1,65,37.8h7a.52.52,0,0,1,.52.52v5.41a.66.66,0,0,0,.22.48,1.36,1.36,0,0,0,.6.3,6.08,6.08,0,0,0,1,.16c.43,0,1,.06,1.63.06a12.33,12.33,0,0,0,1.59-.06,6.35,6.35,0,0,0,1-.16,1.36,1.36,0,0,0,.62-.3.53.53,0,0,0,.22-.48v-16c0-1.68-.11-1.93-.22-2A1.38,1.38,0,0,0,78.57,25.36Z"/><path class="a" d="M101.1,25.37a5.28,5.28,0,0,0-1-.15H97a5.64,5.64,0,0,0-1,.15,1.19,1.19,0,0,0-.58.29.66.66,0,0,0-.19.47V37.45a1.19,1.19,0,0,1-.12.47A4.19,4.19,0,0,1,89.93,40a2.85,2.85,0,0,1-1.1-.75A3.17,3.17,0,0,1,88.18,38,7.26,7.26,0,0,1,88,36V26.14a.65.65,0,0,0-.2-.47,1.33,1.33,0,0,0-.59-.29,5.58,5.58,0,0,0-1-.15h-3a5.77,5.77,0,0,0-1,.15,1.19,1.19,0,0,0-.58.3.67.67,0,0,0-.19.47V36.83a11.81,11.81,0,0,0,.42,3.39,6.16,6.16,0,0,0,1.41,2.43,6.81,6.81,0,0,0,2.59,1.65,11.2,11.2,0,0,0,3.91.6,8.31,8.31,0,0,0,5.67-2.3.52.52,0,0,1,.82.42v.71a.7.7,0,0,0,.17.46,1.1,1.1,0,0,0,.51.3,4,4,0,0,0,.85.16c.35,0,.8,0,1.35,0a9.29,9.29,0,0,0,1.3,0,4.29,4.29,0,0,0,.86-.15,1.08,1.08,0,0,0,.52-.3.69.69,0,0,0,.17-.46V26.14a.64.64,0,0,0-.2-.47A1.33,1.33,0,0,0,101.1,25.37Z"/><path class="a" d="M125.16,25.82a.88.88,0,0,0-.33-.38.85.85,0,0,0-.43-.11H104.59a.82.82,0,0,0-.45.12.91.91,0,0,0-.31.37,2.28,2.28,0,0,0-.19.68c0,.24-.06,1.19-.06,1.68a12.22,12.22,0,0,0,.06,1.3,2.3,2.3,0,0,0,.19.67,1,1,0,0,0,.31.38.78.78,0,0,0,.45.13h6a.52.52,0,0,1,.52.52V43.94a.52.52,0,0,0,.17.38,1.25,1.25,0,0,0,.56.27,6.57,6.57,0,0,0,1,.16c.43,0,1,.06,1.6.06a12.82,12.82,0,0,0,1.6-.06,6.49,6.49,0,0,0,1-.16,1.26,1.26,0,0,0,.55-.27.53.53,0,0,0,.17-.39V31.19a.52.52,0,0,1,.52-.52h6a.78.78,0,0,0,.43-.13,1,1,0,0,0,.33-.39,2.26,2.26,0,0,0,.19-.67,12.07,12.07,0,0,0,.06-1.3,13.52,13.52,0,0,0-.06-1.68A2.23,2.23,0,0,0,125.16,25.82Z"/><path class="a" d="M22.7,0A22.69,22.69,0,1,0,45.4,22.7,22.69,22.69,0,0,0,22.7,0Zm4.39,38.29a2,2,0,0,1-2-2,4.94,4.94,0,0,0-2.3-4.07L11.51,25.4A8.26,8.26,0,0,1,7.7,18.2c0-5.42,3.73-8.92,9.49-8.92h5.37a2,2,0,0,1,0,4H17.19c-2.52,0-5.51.86-5.51,4.94a5.1,5.1,0,0,0,2.38,4.14l11.62,7.09c1.38.89,3.47,2.59,3.47,6.82a2,2,0,0,1-2,2Zm7.46-9.5a2,2,0,0,1-4.09,0V25.91a2,2,0,1,1,4.09,0Zm0-9.41a2.05,2.05,0,0,1-2,2H24.42a2,2,0,1,1,0-4.09h6v-6a2,2,0,1,1,4.09,0Z"/></svg>